STARTFONT 2.1
COMMENT
COMMENT Converted from OpenType font "LeagueSpartan-Bold.otf" by "otf2bdf 3.0".
COMMENT
FONT -FreeType-League Spartan-Bold-R-Normal--22-160-100-100-P-111-ISO10646-1
SIZE 16 100 100
FONTBOUNDINGBOX 30 32 -3 -7
STARTPROPERTIES 19
FOUNDRY "FreeType"
FAMILY_NAME "League Spartan"
WEIGHT_NAME "Bold"
SLANT "R"
SETWIDTH_NAME "Normal"
ADD_STYLE_NAME ""
PIXEL_SIZE 22
POINT_SIZE 160
RESOLUTION_X 100
RESOLUTION_Y 100
SPACING "P"
AVERAGE_WIDTH 111
CHARSET_REGISTRY "ISO10646"
CHARSET_ENCODING "1"
FONT_ASCENT 15
FONT_DESCENT 4
COPYRIGHT "OFL"
_OTF_FONTFILE "LeagueSpartan-Bold.otf"
_OTF_PSNAME "LeagueSpartan-Bold"
ENDPROPERTIES
CHARS 96
ENDFONT
STARTCHAR 0020
ENCODING 32
SWIDTH 270 0
DWIDTH 6 0
BBX 0 0 0 0
BITMAP
ENDCHAR
STARTCHAR 0021
ENCODING 33
SWIDTH 315 0
DWIDTH 7 0
BBX 4 16 1 0
BITMAP
F0
70
70
70
70
70
70
70
60
60
60
00
70
F0
F0
70
ENDCHAR
STARTCHAR 0022
ENCODING 34
SWIDTH 405 0
DWIDTH 9 0
BBX 7 6 1 9
BITMAP
EC
EE
EE
CC
CC
44
ENDCHAR
STARTCHAR 0023
ENCODING 35
SWIDTH 675 0
DWIDTH 15 0
BBX 12 15 1 0
BITMAP
0660
0E60
0C60
0CE0
3FF0
7FF0
18C0
19C0
3980
7FE0
FFE0
3380
7300
6300
6300
ENDCHAR
STARTCHAR 0024
ENCODING 36
SWIDTH 540 0
DWIDTH 12 0
BBX 11 19 0 -2
BITMAP
0600
0600
0F80
3FE0
3FC0
7840
7800
3C00
3F00
1FC0
03E0
01E0
00E0
70E0
7FE0
FFC0
1F80
0600
0600
ENDCHAR
STARTCHAR 0025
ENCODING 37
SWIDTH 810 0
DWIDTH 18 0
BBX 16 15 1 0
BITMAP
7818
FE38
C630
C660
C660
FEC0
3980
0180
033C
077E
06E7
0CE3
0CE7
187E
383C
ENDCHAR
STARTCHAR 0026
ENCODING 38
SWIDTH 675 0
DWIDTH 15 0
BBX 15 15 0 0
BITMAP
07C0
1FE0
1FE0
3CE0
1CE0
1CE0
1FC0
1F80
3F88
7BDC
F0FC
F0F8
7FF8
7FFC
1F1E
ENDCHAR
STARTCHAR 0027
ENCODING 39
SWIDTH 225 0
DWIDTH 5 0
BBX 3 6 1 9
BITMAP
E0
E0
E0
E0
C0
40
ENDCHAR
STARTCHAR 0028
ENCODING 40
SWIDTH 315 0
DWIDTH 7 0
BBX 5 21 1 -5
BITMAP
10
38
30
70
70
60
E0
E0
E0
E0
E0
E0
E0
E0
E0
60
60
70
30
38
10
ENDCHAR
STARTCHAR 0029
ENCODING 41
SWIDTH 315 0
DWIDTH 7 0
BBX 5 21 1 -5
BITMAP
40
E0
60
70
70
30
38
38
38
38
38
38
38
38
38
30
70
70
60
E0
40
ENDCHAR
STARTCHAR 002A
ENCODING 42
SWIDTH 405 0
DWIDTH 9 0
BBX 7 6 1 10
BITMAP
10
10
FE
38
38
6C
ENDCHAR
STARTCHAR 002B
ENCODING 43
SWIDTH 540 0
DWIDTH 12 0
BBX 9 9 1 3
BITMAP
1C00
1C00
1C00
FF80
FF80
FF80
1C00
1C00
1C00
ENDCHAR
STARTCHAR 002C
ENCODING 44
SWIDTH 270 0
DWIDTH 6 0
BBX 4 7 1 -3
BITMAP
60
F0
F0
70
30
60
40
ENDCHAR
STARTCHAR 002D
ENCODING 45
SWIDTH 360 0
DWIDTH 8 0
BBX 6 3 1 4
BITMAP
FC
FC
FC
ENDCHAR
STARTCHAR 002E
ENCODING 46
SWIDTH 315 0
DWIDTH 7 0
BBX 4 4 1 0
BITMAP
70
F0
F0
70
ENDCHAR
STARTCHAR 002F
ENCODING 47
SWIDTH 495 0
DWIDTH 11 0
BBX 9 17 1 -1
BITMAP
0380
0380
0300
0700
0600
0E00
0E00
0C00
1C00
1800
3800
3000
7000
7000
6000
E000
C000
ENDCHAR
STARTCHAR 0030
ENCODING 48
SWIDTH 585 0
DWIDTH 13 0
BBX 12 15 0 0
BITMAP
0F80
1FC0
3FE0
78F0
7070
7070
7070
F070
7070
7070
7070
78F0
3FE0
1FC0
0F80
ENDCHAR
STARTCHAR 0031
ENCODING 49
SWIDTH 315 0
DWIDTH 7 0
BBX 6 15 0 0
BITMAP
1C
3C
FC
FC
DC
1C
1C
1C
1C
1C
1C
1C
1C
1C
1C
ENDCHAR
STARTCHAR 0032
ENCODING 50
SWIDTH 585 0
DWIDTH 13 0
BBX 11 15 0 0
BITMAP
0F80
3FC0
7FE0
F0E0
70E0
00E0
01E0
01E0
03C0
0780
1F00
3E00
7FE0
7FE0
7FE0
ENDCHAR
STARTCHAR 0033
ENCODING 51
SWIDTH 540 0
DWIDTH 12 0
BBX 11 15 0 0
BITMAP
1F00
3FC0
7FC0
71E0
00E0
01C0
07C0
07C0
01E0
00E0
20E0
F1E0
7FE0
3FC0
1F00
ENDCHAR
STARTCHAR 0034
ENCODING 52
SWIDTH 540 0
DWIDTH 12 0
BBX 11 15 0 0
BITMAP
0780
0780
0F80
0F80
1F80
3B80
3B80
7380
7380
FFE0
FFE0
FFE0
0380
0380
0380
ENDCHAR
STARTCHAR 0035
ENCODING 53
SWIDTH 540 0
DWIDTH 12 0
BBX 10 15 1 0
BITMAP
7F80
7F80
7F80
7000
F000
EF00
FF80
FFC0
23C0
01C0
01C0
E3C0
FF80
7F80
3E00
ENDCHAR
STARTCHAR 0036
ENCODING 54
SWIDTH 540 0
DWIDTH 12 0
BBX 10 15 1 0
BITMAP
0780
0F00
1E00
1C00
3C00
7E00
7F80
FFC0
F1C0
E1C0
E1C0
E1C0
FFC0
7F80
1E00
ENDCHAR
STARTCHAR 0037
ENCODING 55
SWIDTH 540 0
DWIDTH 12 0
BBX 11 15 1 0
BITMAP
FFE0
FFE0
FFC0
03C0
0380
0780
0700
0F00
0E00
1E00
1C00
3800
7800
7000
F000
ENDCHAR
STARTCHAR 0038
ENCODING 56
SWIDTH 540 0
DWIDTH 12 0
BBX 10 15 1 0
BITMAP
1E00
7F80
7F80
F1C0
E1C0
7380
3F80
7F80
FFC0
E1C0
E1C0
F1C0
FFC0
7F80
1F00
ENDCHAR
STARTCHAR 0039
ENCODING 57
SWIDTH 540 0
DWIDTH 12 0
BBX 10 15 1 0
BITMAP
1E00
7F80
FFC0
E1C0
E1C0
E1C0
E1C0
FFC0
7FC0
3F80
0700
0F00
1E00
3C00
7800
ENDCHAR
STARTCHAR 003A
ENCODING 58
SWIDTH 270 0
DWIDTH 6 0
BBX 4 10 1 0
BITMAP
60
F0
F0
60
00
00
60
F0
F0
70
ENDCHAR
STARTCHAR 003B
ENCODING 59
SWIDTH 270 0
DWIDTH 6 0
BBX 4 13 1 -3
BITMAP
60
F0
F0
60
00
00
60
F0
F0
F0
20
60
C0
ENDCHAR
STARTCHAR 003C
ENCODING 60
SWIDTH 540 0
DWIDTH 12 0
BBX 10 11 1 2
BITMAP
0040
01C0
0FC0
3F80
FC00
F000
FC00
7F00
0FC0
03C0
00C0
ENDCHAR
STARTCHAR 003D
ENCODING 61
SWIDTH 540 0
DWIDTH 12 0
BBX 9 7 1 4
BITMAP
FF80
FF80
FF80
0000
FF80
FF80
FF80
ENDCHAR
STARTCHAR 003E
ENCODING 62
SWIDTH 540 0
DWIDTH 12 0
BBX 10 11 1 2
BITMAP
8000
E000
F800
7F00
1FC0
03C0
0FC0
3F00
FC00
F000
8000
ENDCHAR
STARTCHAR 003F
ENCODING 63
SWIDTH 495 0
DWIDTH 11 0
BBX 10 15 0 0
BITMAP
1F00
7F80
FFC0
63C0
03C0
0380
0F00
0E00
1C00
1C00
0000
0C00
1E00
1E00
0C00
ENDCHAR
STARTCHAR 0040
ENCODING 64
SWIDTH 765 0
DWIDTH 17 0
BBX 15 15 1 0
BITMAP
07E0
1FF0
7C7C
701C
E76E
CFE6
DCE6
DC66
DC66
CFFE
E7BC
7020
7EF0
1FF0
0FC0
ENDCHAR
STARTCHAR 0041
ENCODING 65
SWIDTH 675 0
DWIDTH 15 0
BBX 15 15 0 0
BITMAP
0780
07C0
07C0
0FC0
0FE0
0EE0
1CE0
1C70
3C70
3FF8
3FF8
7FF8
703C
F01C
F01E
ENDCHAR
STARTCHAR 0042
ENCODING 66
SWIDTH 540 0
DWIDTH 12 0
BBX 10 15 1 0
BITMAP
FF00
FF80
FFC0
E3C0
E3C0
E380
FF00
FF80
FFC0
E1C0
E1C0
E1C0
FFC0
FF80
FF00
ENDCHAR
STARTCHAR 0043
ENCODING 67
SWIDTH 630 0
DWIDTH 14 0
BBX 12 15 1 0
BITMAP
07E0
1FF0
3FF0
7C60
F000
F000
E000
E000
E000
F000
F000
7C60
3FF0
1FF0
07E0
ENDCHAR
STARTCHAR 0044
ENCODING 68
SWIDTH 585 0
DWIDTH 13 0
BBX 11 15 1 0
BITMAP
FE00
FF80
FFC0
E3C0
E1E0
E0E0
E0E0
E0E0
E0E0
E0E0
E1E0
E3C0
FFC0
FF80
FE00
ENDCHAR
STARTCHAR 0045
ENCODING 69
SWIDTH 540 0
DWIDTH 12 0
BBX 9 15 1 0
BITMAP
FF80
FF80
FF80
E000
E000
E000
FF80
FF80
FF80
E000
E000
E000
FF80
FF80
FF80
ENDCHAR
STARTCHAR 0046
ENCODING 70
SWIDTH 495 0
DWIDTH 11 0
BBX 8 15 1 0
BITMAP
FF
FF
FF
E0
E0
E0
FF
FF
FF
E0
E0
E0
E0
E0
E0
ENDCHAR
STARTCHAR 0047
ENCODING 71
SWIDTH 720 0
DWIDTH 16 0
BBX 15 15 0 0
BITMAP
07E0
1FF8
3FFC
7C3C
7810
7000
F000
F0FE
70FE
700E
781E
3C3C
3FFC
1FF8
07E0
ENDCHAR
STARTCHAR 0048
ENCODING 72
SWIDTH 630 0
DWIDTH 14 0
BBX 12 15 1 0
BITMAP
E0F0
E0F0
E0F0
E0F0
E0F0
E0F0
FFF0
FFF0
FFF0
E0F0
E0F0
E0F0
E0F0
E0F0
E0F0
ENDCHAR
STARTCHAR 0049
ENCODING 73
SWIDTH 270 0
DWIDTH 6 0
BBX 3 15 1 0
BITMAP
E0
E0
E0
E0
E0
E0
E0
E0
E0
E0
E0
E0
E0
E0
E0
ENDCHAR
STARTCHAR 004A
ENCODING 74
SWIDTH 405 0
DWIDTH 9 0
BBX 8 15 0 0
BITMAP
0F
0F
0F
0F
0F
0F
0F
0F
0F
0F
0F
4F
FE
FE
78
ENDCHAR
STARTCHAR 004B
ENCODING 75
SWIDTH 585 0
DWIDTH 13 0
BBX 11 15 1 0
BITMAP
E1E0
E3C0
E780
E700
EF00
FE00
FC00
FC00
FE00
EE00
EF00
E780
E3C0
E3C0
E1E0
ENDCHAR
STARTCHAR 004C
ENCODING 76
SWIDTH 495 0
DWIDTH 11 0
BBX 9 15 1 0
BITMAP
E000
E000
E000
E000
E000
E000
E000
E000
E000
E000
E000
E000
FF80
FF80
FF80
ENDCHAR
STARTCHAR 004D
ENCODING 77
SWIDTH 810 0
DWIDTH 18 0
BBX 15 15 1 0
BITMAP
F81E
F83E
F83E
FC3E
FC3E
FC7E
EC7E
EE6E
EEEE
E6EE
E7CE
E7CE
E3CE
E38E
E00E
ENDCHAR
STARTCHAR 004E
ENCODING 78
SWIDTH 720 0
DWIDTH 16 0
BBX 13 15 1 0
BITMAP
F838
F838
FC38
FC38
EE38
EE38
E738
E738
E3B8
E3B8
E1F8
E1F8
E0F8
E0F8
E078
ENDCHAR
STARTCHAR 004F
ENCODING 79
SWIDTH 720 0
DWIDTH 16 0
BBX 15 15 0 0
BITMAP
07E0
1FF8
3FFC
3C3C
781E
700E
700E
F00E
700E
700E
781E
3C3C
3FFC
1FF8
07E0
ENDCHAR
STARTCHAR 0050
ENCODING 80
SWIDTH 540 0
DWIDTH 12 0
BBX 10 15 1 0
BITMAP
FF00
FF80
FFC0
E3C0
E1C0
E1C0
E3C0
FFC0
FF80
FC00
E000
E000
E000
E000
E000
ENDCHAR
STARTCHAR 0051
ENCODING 81
SWIDTH 720 0
DWIDTH 16 0
BBX 15 19 0 -4
BITMAP
07E0
1FF8
3FFC
3C3C
781E
700E
700E
F00E
F00E
700E
781E
7C3E
3FFC
1FF8
07E0
0FE6
1FFE
08FE
003C
ENDCHAR
STARTCHAR 0052
ENCODING 82
SWIDTH 585 0
DWIDTH 13 0
BBX 11 15 1 0
BITMAP
FF00
FF80
FFC0
E1C0
E1C0
E1C0
E3C0
FF80
FF00
EF00
E700
E780
E380
E3C0
E1E0
ENDCHAR
STARTCHAR 0053
ENCODING 83
SWIDTH 540 0
DWIDTH 12 0
BBX 11 15 0 0
BITMAP
0F80
3FE0
3FC0
7840
7800
3C00
3F00
1FC0
03E0
01E0
00E0
70E0
7FE0
FFC0
1F80
ENDCHAR
STARTCHAR 0054
ENCODING 84
SWIDTH 495 0
DWIDTH 11 0
BBX 10 15 0 0
BITMAP
FFC0
FFC0
FFC0
0E00
0E00
0E00
0E00
0E00
0E00
0E00
0E00
0E00
0E00
0E00
0E00
ENDCHAR
STARTCHAR 0055
ENCODING 85
SWIDTH 630 0
DWIDTH 14 0
BBX 12 15 1 0
BITMAP
E0F0
E0F0
E0F0
E0F0
E0F0
E0F0
E0F0
E0F0
E0F0
E0F0
E0F0
F1E0
7FE0
3FC0
1F00
ENDCHAR
STARTCHAR 0056
ENCODING 86
SWIDTH 675 0
DWIDTH 15 0
BBX 14 15 0 0
BITMAP
F03C
703C
7838
7878
3878
3870
3CF0
1CF0
1CE0
1EE0
0FE0
0FC0
0FC0
07C0
0780
ENDCHAR
STARTCHAR 0057
ENCODING 87
SWIDTH 900 0
DWIDTH 20 0
BBX 19 15 0 0
BITMAP
F0E1E0
70E1E0
70F1E0
78F1C0
79F1C0
79F1C0
39FBC0
39BBC0
3BBB80
3F9B80
1F9F80
1F1F80
1F1F00
1F0F00
1F0F00
ENDCHAR
STARTCHAR 0058
ENCODING 88
SWIDTH 720 0
DWIDTH 16 0
BBX 15 15 0 0
BITMAP
783C
3C78
3C70
1EF0
0FE0
0FC0
07C0
07C0
0FE0
0FE0
1EF0
3CF8
3C78
783C
F03E
ENDCHAR
STARTCHAR 0059
ENCODING 89
SWIDTH 585 0
DWIDTH 13 0
BBX 13 15 0 0
BITMAP
F078
F0F0
78F0
79E0
3DE0
1FC0
1FC0
0F80
0F80
0700
0700
0700
0700
0700
0700
ENDCHAR
STARTCHAR 005A
ENCODING 90
SWIDTH 630 0
DWIDTH 14 0
BBX 13 15 0 0
BITMAP
7FF8
7FF0
7FF0
01E0
03C0
03C0
0780
0780
0F00
1E00
1E00
3C00
3FF8
7FF8
FFF8
ENDCHAR
STARTCHAR 005B
ENCODING 91
SWIDTH 360 0
DWIDTH 8 0
BBX 6 21 1 -5
BITMAP
FC
FC
E0
E0
E0
E0
E0
E0
E0
E0
E0
E0
E0
E0
E0
E0
E0
E0
E0
FC
FC
ENDCHAR
STARTCHAR 005C
ENCODING 92
SWIDTH 495 0
DWIDTH 11 0
BBX 9 16 1 0
BITMAP
C000
E000
6000
7000
7000
3800
3800
1800
1C00
0C00
0E00
0600
0700
0300
0380
0380
ENDCHAR
STARTCHAR 005D
ENCODING 93
SWIDTH 360 0
DWIDTH 8 0
BBX 6 21 1 -5
BITMAP
FC
FC
1C
1C
1C
1C
1C
1C
1C
1C
1C
1C
1C
1C
1C
1C
1C
1C
1C
FC
FC
ENDCHAR
STARTCHAR 005E
ENCODING 94
SWIDTH 405 0
DWIDTH 9 0
BBX 8 4 1 11
BITMAP
38
7C
6E
C7
ENDCHAR
STARTCHAR 005F
ENCODING 95
SWIDTH 405 0
DWIDTH 9 0
BBX 9 2 0 -2
BITMAP
FF80
FF80
ENDCHAR
STARTCHAR 0060
ENCODING 96
SWIDTH 315 0
DWIDTH 7 0
BBX 5 4 1 11
BITMAP
40
E0
70
18
ENDCHAR
STARTCHAR 0061
ENCODING 97
SWIDTH 585 0
DWIDTH 13 0
BBX 11 9 0 0
BITMAP
1EE0
3FE0
7FE0
70E0
F0E0
70E0
7FE0
3FE0
1EE0
ENDCHAR
STARTCHAR 0062
ENCODING 98
SWIDTH 540 0
DWIDTH 12 0
BBX 11 16 1 0
BITMAP
E000
E000
E000
E000
E000
E000
E000
EF00
FFC0
FFC0
F1E0
E1E0
F1E0
FFC0
FFC0
EF00
ENDCHAR
STARTCHAR 0063
ENCODING 99
SWIDTH 405 0
DWIDTH 9 0
BBX 8 9 1 0
BITMAP
3E
7F
FE
E0
E0
E0
FE
7F
3E
ENDCHAR
STARTCHAR 0064
ENCODING 100
SWIDTH 540 0
DWIDTH 12 0
BBX 11 16 0 0
BITMAP
00E0
00E0
00E0
00E0
00E0
00E0
00E0
1EE0
3FE0
7FE0
70E0
F0E0
70E0
7FE0
3FE0
1EE0
ENDCHAR
STARTCHAR 0065
ENCODING 101
SWIDTH 495 0
DWIDTH 11 0
BBX 10 9 0 0
BITMAP
1F00
3F80
71C0
7FC0
FFC0
7000
7980
3FC0
1F80
ENDCHAR
STARTCHAR 0066
ENCODING 102
SWIDTH 360 0
DWIDTH 8 0
BBX 8 16 0 0
BITMAP
0F
1F
3E
38
38
38
38
FE
FE
FE
38
38
38
38
38
38
ENDCHAR
STARTCHAR 0067
ENCODING 103
SWIDTH 585 0
DWIDTH 13 0
BBX 11 14 0 -5
BITMAP
1EE0
3FE0
7FE0
70E0
F0E0
70E0
7FE0
3FE0
1EE0
00E0
20E0
7FE0
7FC0
1F00
ENDCHAR
STARTCHAR 0068
ENCODING 104
SWIDTH 540 0
DWIDTH 12 0
BBX 10 16 1 0
BITMAP
E000
E000
E000
E000
E000
E000
E000
EF00
FFC0
FBC0
E1C0
E1C0
E1C0
E1C0
E1C0
E1C0
ENDCHAR
STARTCHAR 0069
ENCODING 105
SWIDTH 270 0
DWIDTH 6 0
BBX 4 15 1 0
BITMAP
E0
F0
F0
60
00
00
E0
E0
E0
E0
E0
E0
E0
E0
E0
ENDCHAR
STARTCHAR 006A
ENCODING 106
SWIDTH 270 0
DWIDTH 6 0
BBX 6 20 -1 -5
BITMAP
18
3C
3C
18
00
00
3C
3C
3C
3C
3C
3C
3C
3C
3C
3C
3C
F8
F8
F0
ENDCHAR
STARTCHAR 006B
ENCODING 107
SWIDTH 495 0
DWIDTH 11 0
BBX 10 16 1 0
BITMAP
E000
E000
E000
E000
E000
E000
E000
E380
E700
EE00
FC00
FC00
FE00
EF00
E780
E3C0
ENDCHAR
STARTCHAR 006C
ENCODING 108
SWIDTH 270 0
DWIDTH 6 0
BBX 3 16 1 0
BITMAP
E0
E0
E0
E0
E0
E0
E0
E0
E0
E0
E0
E0
E0
E0
E0
E0
ENDCHAR
STARTCHAR 006D
ENCODING 109
SWIDTH 810 0
DWIDTH 18 0
BBX 16 9 1 0
BITMAP
EF3C
FFFE
F3EF
E3C7
E387
E387
E387
E387
E387
ENDCHAR
STARTCHAR 006E
ENCODING 110
SWIDTH 540 0
DWIDTH 12 0
BBX 10 9 1 0
BITMAP
EF00
FF80
F3C0
E1C0
E1C0
E1C0
E1C0
E1C0
E1C0
ENDCHAR
STARTCHAR 006F
ENCODING 111
SWIDTH 495 0
DWIDTH 11 0
BBX 11 9 0 0
BITMAP
1F00
3F80
7FC0
71E0
F1E0
71E0
7FC0
3F80
1F00
ENDCHAR
STARTCHAR 0070
ENCODING 112
SWIDTH 585 0
DWIDTH 13 0
BBX 11 14 1 -5
BITMAP
EF80
FFC0
FFC0
F1E0
E0E0
F1E0
FFC0
FFC0
EF00
E000
E000
E000
E000
E000
ENDCHAR
STARTCHAR 0071
ENCODING 113
SWIDTH 585 0
DWIDTH 13 0
BBX 11 14 1 -5
BITMAP
3DE0
7FE0
FFE0
E1E0
E1E0
E1E0
FFE0
7FE0
3DE0
01E0
01E0
01E0
01E0
01E0
ENDCHAR
STARTCHAR 0072
ENCODING 114
SWIDTH 405 0
DWIDTH 9 0
BBX 8 9 1 0
BITMAP
EF
FE
FE
E0
E0
E0
E0
E0
E0
ENDCHAR
STARTCHAR 0073
ENCODING 115
SWIDTH 450 0
DWIDTH 10 0
BBX 8 9 1 0
BITMAP
7E
FE
E2
F8
7E
0F
CF
FE
FC
ENDCHAR
STARTCHAR 0074
ENCODING 116
SWIDTH 360 0
DWIDTH 8 0
BBX 7 13 0 0
BITMAP
38
38
38
38
FE
FE
FE
38
38
38
3E
3E
1E
ENDCHAR
STARTCHAR 0075
ENCODING 117
SWIDTH 540 0
DWIDTH 12 0
BBX 10 9 1 0
BITMAP
E1C0
E1C0
E1C0
E1C0
E1C0
E3C0
FFC0
7F80
3E00
ENDCHAR
STARTCHAR 0076
ENCODING 118
SWIDTH 540 0
DWIDTH 12 0
BBX 11 9 0 0
BITMAP
F0E0
70E0
79E0
39C0
3BC0
3F80
1F80
1F00
0F00
ENDCHAR
STARTCHAR 0077
ENCODING 119
SWIDTH 720 0
DWIDTH 16 0
BBX 16 9 0 0
BITMAP
E18F
F3CF
73CE
73CE
77FE
3E7C
3E7C
3C7C
1C38
ENDCHAR
STARTCHAR 0078
ENCODING 120
SWIDTH 540 0
DWIDTH 12 0
BBX 10 9 1 0
BITMAP
F3C0
7380
3F00
3E00
1E00
3F00
7F80
F380
E1C0
ENDCHAR
STARTCHAR 0079
ENCODING 121
SWIDTH 495 0
DWIDTH 11 0
BBX 11 14 0 -5
BITMAP
E0E0
71E0
71C0
79C0
3B80
3B80
1F00
1F00
1E00
0E00
1E00
1C00
3C00
3800
ENDCHAR
STARTCHAR 007A
ENCODING 122
SWIDTH 450 0
DWIDTH 10 0
BBX 9 9 0 0
BITMAP
7F80
7F80
0F00
0E00
1E00
3C00
3800
7F80
FF80
ENDCHAR
STARTCHAR 007B
ENCODING 123
SWIDTH 360 0
DWIDTH 8 0
BBX 6 21 1 -5
BITMAP
3C
3C
70
70
70
70
70
70
70
F0
E0
70
70
70
70
70
70
70
70
3C
3C
ENDCHAR
STARTCHAR 007C
ENCODING 124
SWIDTH 225 0
DWIDTH 5 0
BBX 3 19 1 -3
BITMAP
E0
E0
E0
E0
E0
E0
E0
E0
E0
E0
E0
E0
E0
E0
E0
E0
E0
E0
E0
ENDCHAR
STARTCHAR 007D
ENCODING 125
SWIDTH 360 0
DWIDTH 8 0
BBX 6 21 1 -5
BITMAP
F0
F0
38
38
38
38
38
38
38
3C
1C
38
38
38
38
38
38
38
38
F0
F0
ENDCHAR
STARTCHAR 007E
ENCODING 126
SWIDTH 585 0
DWIDTH 13 0
BBX 11 4 1 5
BITMAP
3800
7FE0
EFC0
0780
ENDCHAR
STARTCHAR 00B0
ENCODING 176
SWIDTH 315 0
DWIDTH 7 0
BBX 4 4 1 12
BITMAP
70
D0
D0
70
ENDCHAR
ENDFONT
